<?xml version="1.0" standalone="no"?>
<!DOCTYPE svg PUBLIC "-//W3C//DTD SVG 20010904//EN"
        "http://www.w3.org/TR/2001/REC-SVG-20010904/DTD/svg10.dtd">
<svg version="1.0" xmlns="http://www.w3.org/2000/svg"
     width="1000.000000pt" height="1000.000000pt" viewBox="0 0 1000.000000 1000.000000"
     preserveAspectRatio="xMidYMid meet">
    <metadata>
        Created by potrace 1.11, written by Peter Selinger 2001-2013
    </metadata>
    <g transform="translate(0.000000,1000.000000) scale(0.100000,-0.100000)"
       fill="#000000" stroke="none">
        <path d="M0 9104 l0 -895 27 21 c29 23 155 136 263 236 171 159 252 223 470
376 105 73 316 197 406 239 176 80 397 139 601 160 128 13 328 5 433 -17 173
-37 372 -103 440 -145 8 -5 30 -16 49 -25 19 -8 40 -22 48 -30 8 -8 18 -14 23
-14 8 0 108 -64 145 -93 13 -10 45 -35 91 -72 48 -39 133 -115 153 -137 17
-19 41 -24 41 -9 0 6 -4 12 -9 15 -5 3 -12 17 -15 30 -10 39 -127 280 -198
406 -76 135 -174 293 -231 370 -81 110 -117 155 -139 180 -13 14 -36 41 -52
60 -35 44 -163 176 -204 213 l-32 27 -1155 0 -1155 0 0 -896z"/>
        <path d="M2040 7899 c0 -5 5 -7 10 -4 6 3 10 8 10 11 0 2 -4 4 -10 4 -5 0 -10
-5 -10 -11z"/>
        <path d="M1924 7820 c-38 -27 -87 -63 -109 -80 -22 -16 -59 -42 -82 -58 -23
-15 -93 -63 -155 -106 -186 -131 -329 -224 -355 -232 -10 -3 -1 6 20 19 22 14
53 38 70 55 18 16 48 40 68 53 20 13 90 65 154 114 65 50 127 97 139 105 11 8
37 28 58 45 20 16 48 38 63 48 14 11 24 21 21 24 -3 3 -31 -13 -63 -36 -94
-67 -279 -189 -413 -271 -69 -42 -161 -99 -205 -127 -231 -144 -668 -383 -948
-518 l-187 -90 0 -238 0 -238 32 23 c74 52 460 345 702 532 142 111 273 212
291 226 49 37 243 191 375 297 243 196 285 231 385 313 56 47 119 99 140 115
73 58 90 74 79 75 -6 0 -42 -22 -80 -50z"/>
        <path d="M3382 6437 c877 -1066 1711 -1819 2278 -2056 159 -66 247 -86 390
-86 116 0 133 3 225 34 138 46 320 136 445 219 285 190 531 448 768 806 127
192 167 243 281 359 131 135 242 204 408 253 72 21 109 26 203 27 140 1 240
-23 379 -89 60 -28 89 -38 80 -26 -233 302 -497 498 -764 568 -81 21 -122 26
-220 26 -146 0 -238 -22 -373 -87 -246 -118 -408 -275 -778 -749 -141 -181
-285 -341 -375 -416 l-49 -42 -142 21 c-385 56 -843 213 -1418 488 -347 166
-954 514 -1273 729 l-108 73 43 -52z"/>
        <path d="M1735 5834 c-371 -39 -684 -135 -972 -298 -98 -55 -223 -136 -212
-136 3 0 41 16 85 36 165 76 412 146 639 180 142 22 512 29 676 15 268 -25
581 -91 849 -181 547 -183 1172 -531 1715 -954 132 -103 428 -350 445 -372 19
-23 -94 55 -230 161 -244 189 -546 397 -790 542 -670 399 -1259 620 -1895 710
-183 26 -680 26 -838 0 -192 -31 -468 -99 -455 -113 3 -2 36 3 74 12 432 101
920 97 1344 -10 360 -91 703 -256 1008 -485 70 -53 276 -213 457 -357 1177
-929 1671 -1266 2075 -1417 350 -130 635 -95 916 115 351 261 861 834 1515
1703 283 376 299 402 110 181 -121 -142 -201 -230 -201 -221 0 3 42 56 93 118
146 177 177 220 87 122 -539 -585 -1059 -973 -1514 -1129 -138 -48 -242 -67
-396 -73 -124 -4 -160 -2 -250 17 -381 78 -936 338 -1514 708 -144 93 -182
120 -406 292 -550 424 -1212 718 -1825 811 -125 19 -490 33 -590 23z"/>
        <path d="M8319 5293 c-13 -16 -12 -17 4 -4 9 7 17 15 17 17 0 8 -8 3 -21 -13z"/>
        <path d="M9972 3933 c-35 -98 -180 -478 -212 -553 -127 -300 -243 -535 -333
-675 -72 -111 -95 -135 -129 -135 -17 0 -61 -9 -97 -19 -36 -11 -83 -20 -103
-19 -20 0 -41 -3 -47 -6 -21 -14 -246 -38 -571 -62 -125 -9 -864 -10 -1015 -1
-198 12 -244 15 -325 22 -84 7 -479 44 -525 50 -16 2 -73 9 -125 15 -52 6
-106 13 -120 15 -141 16 -211 26 -222 30 -7 2 -33 6 -58 9 -25 2 -72 9 -105
14 -57 10 -180 30 -235 38 -33 5 -185 31 -285 49 -44 8 -98 17 -120 21 -22 3
-78 14 -125 24 -47 10 -103 21 -125 24 -22 2 -90 16 -150 29 -61 14 -130 28
-155 32 -25 3 -108 21 -185 40 -77 18 -161 36 -185 40 -25 4 -191 43 -370 87
-179 45 -332 82 -340 83 -9 0 -21 4 -28 9 -6 4 -12 5 -12 2 0 -2 -24 2 -52 10
-29 8 -66 17 -83 20 -16 3 -36 11 -42 16 -7 6 -13 8 -13 5 0 -3 -24 1 -52 9
-29 8 -64 17 -78 20 -14 2 -32 7 -40 11 -8 3 -24 8 -35 10 -11 2 -27 6 -35 10
-8 3 -20 7 -26 8 -18 4 -448 127 -462 132 -30 12 -8 -15 36 -42 67 -42 375
-242 388 -252 11 -9 26 -18 94 -59 25 -15 51 -34 58 -41 7 -7 20 -13 28 -13 8
0 14 -3 14 -7 0 -5 24 -21 53 -37 28 -17 58 -36 65 -43 7 -7 20 -13 28 -13 8
0 14 -4 14 -8 0 -4 25 -21 55 -37 30 -17 55 -33 55 -37 0 -5 6 -8 14 -8 8 0
21 -6 28 -12 8 -7 30 -22 49 -33 20 -11 102 -60 182 -110 81 -49 160 -97 175
-105 15 -8 29 -18 32 -21 3 -3 12 -8 21 -12 9 -3 64 -35 121 -70 58 -36 114
-68 126 -71 12 -4 22 -12 22 -17 0 -5 5 -9 10 -9 6 0 73 -35 148 -79 137 -79
222 -126 297 -164 22 -12 42 -23 45 -26 3 -4 32 -19 65 -36 33 -16 62 -32 65
-35 5 -5 27 -17 280 -147 68 -35 130 -69 137 -75 7 -6 13 -7 13 -2 0 5 4 5 8
-1 10 -14 660 -335 678 -335 3 0 51 -22 107 -49 56 -27 113 -52 127 -56 14 -4
30 -11 35 -15 6 -4 51 -24 100 -45 50 -20 109 -45 132 -56 23 -10 44 -19 47
-19 3 0 29 -11 58 -24 29 -13 64 -27 78 -31 14 -4 43 -16 65 -26 244 -111
1114 -380 1306 -404 24 -3 78 -12 119 -20 41 -8 98 -18 125 -21 28 -3 66 -7
85 -9 146 -19 436 -24 560 -12 30 3 81 8 112 11 67 7 329 86 404 122 29 13 68
35 87 48 19 13 44 27 55 30 10 4 27 15 37 26 10 11 22 20 27 20 4 0 16 7 26
16 9 8 47 38 85 66 l67 50 0 1499 c0 825 -2 1499 -4 1499 -2 0 -13 -26 -24
-57z"/>
        <path d="M1785 1470 c-60 -4 -157 -11 -215 -14 -58 -4 -117 -9 -133 -12 -15
-3 -42 -7 -60 -9 -59 -5 -141 -16 -197 -25 -30 -5 -89 -14 -130 -20 -99 -15
-240 -45 -370 -77 -58 -14 -159 -38 -225 -53 -66 -15 -163 -44 -215 -64 -52
-21 -128 -49 -167 -62 l-73 -26 0 -212 0 -213 137 37 c314 85 675 156 968 191
50 6 123 14 163 19 40 5 114 12 165 15 50 3 151 10 222 15 123 8 872 6 980 -4
28 -2 95 -7 150 -11 104 -8 119 -9 225 -20 88 -8 135 -13 135 -15 0 0 18 -3
40 -5 115 -11 148 -15 186 -24 24 -5 46 -8 50 -5 4 2 29 0 54 -6 25 -6 67 -12
93 -15 26 -2 77 -11 114 -18 37 -8 69 -13 71 -10 2 2 43 -6 90 -17 48 -11 106
-22 129 -25 41 -5 179 -33 378 -76 200 -43 1011 -260 1070 -286 8 -3 17 -7 20
-8 84 -25 226 -70 260 -83 25 -9 47 -17 50 -18 3 0 12 -4 20 -7 8 -3 56 -20
105 -36 124 -40 392 -136 445 -158 8 -3 17 -7 20 -7 3 -1 14 -6 25 -12 11 -6
41 -17 68 -24 26 -7 47 -17 47 -21 0 -5 3 -8 8 -7 4 0 14 -2 22 -5 89 -38 30
-37 1796 -37 l1694 0 0 86 c0 78 -2 85 -17 79 -10 -3 -40 -11 -68 -16 -27 -5
-74 -14 -103 -20 -127 -26 -281 -34 -617 -34 -297 0 -409 5 -675 30 -94 9
-105 10 -220 24 -52 7 -108 14 -125 15 -30 3 -128 18 -238 37 -32 6 -77 12
-100 15 -23 3 -71 12 -105 20 -35 8 -68 12 -72 9 -5 -3 -12 0 -15 6 -4 5 -13
8 -20 5 -7 -2 -60 6 -118 19 -58 13 -123 26 -145 29 -21 2 -106 21 -188 40
-82 20 -166 38 -187 40 -140 18 -1322 346 -1389 385 -9 6 -69 31 -135 56 -65
26 -131 52 -148 60 -44 19 -159 55 -166 52 -3 -1 -13 4 -21 11 -8 7 -73 30
-144 51 -71 22 -145 46 -165 55 -110 47 -985 262 -1146 281 -21 3 -72 11 -113
19 -98 19 -217 38 -258 42 -18 1 -52 6 -75 10 -23 4 -53 8 -67 10 -14 1 -119
11 -235 23 -115 11 -241 23 -280 26 -124 9 -746 13 -860 5z"/>
        <path d="M1788 795 c-1 -2 -59 -6 -128 -10 -69 -4 -145 -8 -170 -10 -85 -8
-185 -17 -230 -21 -25 -3 -61 -6 -80 -8 -38 -3 -97 -11 -202 -26 -38 -6 -101
-15 -140 -21 -150 -21 -390 -69 -553 -111 -66 -16 -157 -39 -202 -50 l-83 -20
0 -69 c0 -38 2 -69 5 -69 3 0 31 6 63 14 54 14 167 36 347 70 82 15 157 26
210 31 17 2 93 10 170 18 77 8 147 15 155 15 8 0 56 3 105 7 171 12 571 7 760
-10 216 -19 267 -24 285 -30 8 -3 38 -7 65 -9 72 -7 174 -24 300 -51 61 -13
130 -27 155 -30 25 -4 50 -11 56 -16 6 -5 13 -7 16 -4 7 7 315 -74 363 -95 11
-5 74 -26 140 -46 66 -20 125 -40 130 -44 6 -4 44 -19 85 -33 121 -42 237 -85
257 -96 10 -5 56 -24 101 -40 l84 -31 1276 1 1277 1 -85 28 c-91 31 -122 41
-130 44 -3 1 -66 21 -140 45 -74 23 -142 45 -150 48 -8 4 -17 7 -20 8 -3 1
-12 5 -20 8 -28 12 -511 147 -738 206 -343 89 -798 193 -906 207 -19 2 -63 10
-98 18 -35 8 -85 17 -113 21 -27 3 -70 10 -93 16 -24 5 -69 12 -100 15 -30 2
-58 7 -62 9 -6 4 -142 22 -225 31 -22 2 -53 7 -70 10 -16 4 -46 8 -65 10 -96
7 -167 15 -190 19 -14 3 -54 7 -90 10 -36 4 -85 8 -110 11 -25 2 -88 7 -140
10 -52 3 -126 8 -165 10 -85 6 -902 14 -907 9z"/>
    </g>
</svg>
